<?xml version="1.0" encoding="UTF-8"?><svg xmlns="http://www.w3.org/2000/svg" xmlns:xlink="http://www.w3.org/1999/xlink" fill-opacity="1" color-rendering="auto" color-interpolation="auto" text-rendering="auto" stroke="black" stroke-linecap="square" width="1273" stroke-miterlimit="10" shape-rendering="auto" stroke-opacity="1" fill="black" stroke-dasharray="none" font-weight="normal" stroke-width="1" height="919" font-family="'Dialog'" font-style="normal" stroke-linejoin="miter" font-size="12px" stroke-dashoffset="0" image-rendering="auto">
  <!--Generated by ySVG 2.5-->
  <defs id="genericDefs"/>
  <g>
    <defs id="defs1">
      <clipPath clipPathUnits="userSpaceOnUse" id="clipPath1">
        <path d="M0 0 L1273 0 L1273 919 L0 919 L0 0 Z"/>
      </clipPath>
      <clipPath clipPathUnits="userSpaceOnUse" id="clipPath2">
        <path d="M-218 216 L276.2002 216 L276.2002 572.7714 L-218 572.7714 L-218 216 Z"/>
      </clipPath>
    </defs>
    <g fill="rgb(153,0,0)" text-rendering="geometricPrecision" shape-rendering="geometricPrecision" transform="matrix(2.5759,0,0,2.5759,561.5416,-556.3899)" stroke="rgb(153,0,0)">
      <rect x="-156.2791" y="241.5742" clip-path="url(#clipPath2)" width="100" rx="4" ry="4" height="321.4609" stroke="none"/>
    </g>
    <g fill="rgb(153,0,0)" text-rendering="geometricPrecision" shape-rendering="geometricPrecision" transform="matrix(2.5759,0,0,2.5759,561.5416,-556.3899)" stroke="rgb(153,0,0)">
      <rect x="-156.2791" width="100" height="21.4609" y="241.5742" clip-path="url(#clipPath2)" stroke="none"/>
    </g>
    <g font-size="15px" stroke-linecap="butt" transform="matrix(2.5759,0,0,2.5759,561.5416,-556.3899)" text-rendering="geometricPrecision" font-family="sans-serif" shape-rendering="geometricPrecision" stroke-miterlimit="1.45">
      <text x="-133.8064" xml:space="preserve" y="257.4975" clip-path="url(#clipPath2)" stroke="none">RedPitaya</text>
      <rect x="-156.2791" y="241.5742" clip-path="url(#clipPath2)" fill="none" width="100" stroke-dasharray="6,2" rx="4" ry="4" height="321.4609"/>
    </g>
    <g fill="rgb(255,204,0)" text-rendering="geometricPrecision" shape-rendering="geometricPrecision" transform="matrix(2.5759,0,0,2.5759,561.5416,-556.3899)" stroke="rgb(255,204,0)">
      <rect x="-104" width="30" height="30" y="278.0351" clip-path="url(#clipPath2)" stroke="none"/>
    </g>
    <g text-rendering="geometricPrecision" stroke-miterlimit="1.45" shape-rendering="geometricPrecision" font-family="sans-serif" transform="matrix(2.5759,0,0,2.5759,561.5416,-556.3899)" stroke-linecap="butt">
      <text x="-92.8174" xml:space="preserve" y="297.1894" clip-path="url(#clipPath2)" stroke="none">1</text>
      <rect fill="none" x="-104" width="30" height="30" y="278.0351" clip-path="url(#clipPath2)"/>
    </g>
    <g fill="rgb(255,204,0)" text-rendering="geometricPrecision" shape-rendering="geometricPrecision" transform="matrix(2.5759,0,0,2.5759,561.5416,-556.3899)" stroke="rgb(255,204,0)">
      <rect x="-104" width="30" height="30" y="308.0351" clip-path="url(#clipPath2)" stroke="none"/>
    </g>
    <g text-rendering="geometricPrecision" stroke-miterlimit="1.45" shape-rendering="geometricPrecision" font-family="sans-serif" transform="matrix(2.5759,0,0,2.5759,561.5416,-556.3899)" stroke-linecap="butt">
      <text x="-92.8174" xml:space="preserve" y="327.1894" clip-path="url(#clipPath2)" stroke="none">3</text>
      <rect fill="none" x="-104" width="30" height="30" y="308.0351" clip-path="url(#clipPath2)"/>
    </g>
    <g fill="rgb(255,204,0)" text-rendering="geometricPrecision" shape-rendering="geometricPrecision" transform="matrix(2.5759,0,0,2.5759,561.5416,-556.3899)" stroke="rgb(255,204,0)">
      <rect x="-104" width="30" height="30" y="338.0351" clip-path="url(#clipPath2)" stroke="none"/>
    </g>
    <g text-rendering="geometricPrecision" stroke-miterlimit="1.45" shape-rendering="geometricPrecision" font-family="sans-serif" transform="matrix(2.5759,0,0,2.5759,561.5416,-556.3899)" stroke-linecap="butt">
      <text x="-92.8174" xml:space="preserve" y="357.1894" clip-path="url(#clipPath2)" stroke="none">4</text>
      <rect fill="none" x="-104" width="30" height="30" y="338.0351" clip-path="url(#clipPath2)"/>
    </g>
    <g fill="rgb(255,204,0)" text-rendering="geometricPrecision" shape-rendering="geometricPrecision" transform="matrix(2.5759,0,0,2.5759,561.5416,-556.3899)" stroke="rgb(255,204,0)">
      <rect x="-104" width="30" height="30" y="368.0351" clip-path="url(#clipPath2)" stroke="none"/>
    </g>
    <g text-rendering="geometricPrecision" stroke-miterlimit="1.45" shape-rendering="geometricPrecision" font-family="sans-serif" transform="matrix(2.5759,0,0,2.5759,561.5416,-556.3899)" stroke-linecap="butt">
      <text x="-92.8174" xml:space="preserve" y="387.1894" clip-path="url(#clipPath2)" stroke="none">5</text>
      <rect fill="none" x="-104" width="30" height="30" y="368.0351" clip-path="url(#clipPath2)"/>
    </g>
    <g fill="rgb(255,204,0)" text-rendering="geometricPrecision" shape-rendering="geometricPrecision" transform="matrix(2.5759,0,0,2.5759,561.5416,-556.3899)" stroke="rgb(255,204,0)">
      <rect x="-104" width="30" height="30" y="398.0351" clip-path="url(#clipPath2)" stroke="none"/>
    </g>
    <g text-rendering="geometricPrecision" stroke-miterlimit="1.45" shape-rendering="geometricPrecision" font-family="sans-serif" transform="matrix(2.5759,0,0,2.5759,561.5416,-556.3899)" stroke-linecap="butt">
      <text x="-92.8174" xml:space="preserve" y="417.1894" clip-path="url(#clipPath2)" stroke="none">6</text>
      <rect fill="none" x="-104" width="30" height="30" y="398.0351" clip-path="url(#clipPath2)"/>
    </g>
    <g fill="rgb(255,204,0)" text-rendering="geometricPrecision" shape-rendering="geometricPrecision" transform="matrix(2.5759,0,0,2.5759,561.5416,-556.3899)" stroke="rgb(255,204,0)">
      <rect x="-104" width="30" height="30" y="428.0351" clip-path="url(#clipPath2)" stroke="none"/>
    </g>
    <g text-rendering="geometricPrecision" stroke-miterlimit="1.45" shape-rendering="geometricPrecision" font-family="sans-serif" transform="matrix(2.5759,0,0,2.5759,561.5416,-556.3899)" stroke-linecap="butt">
      <text x="-92.8174" xml:space="preserve" y="447.1894" clip-path="url(#clipPath2)" stroke="none">7</text>
      <rect fill="none" x="-104" width="30" height="30" y="428.0351" clip-path="url(#clipPath2)"/>
    </g>
    <g fill="rgb(255,204,0)" text-rendering="geometricPrecision" shape-rendering="geometricPrecision" transform="matrix(2.5759,0,0,2.5759,561.5416,-556.3899)" stroke="rgb(255,204,0)">
      <rect x="-104" width="30" height="30" y="458.0351" clip-path="url(#clipPath2)" stroke="none"/>
    </g>
    <g text-rendering="geometricPrecision" stroke-miterlimit="1.45" shape-rendering="geometricPrecision" font-family="sans-serif" transform="matrix(2.5759,0,0,2.5759,561.5416,-556.3899)" stroke-linecap="butt">
      <text x="-92.8174" xml:space="preserve" y="477.1894" clip-path="url(#clipPath2)" stroke="none">8</text>
      <rect fill="none" x="-104" width="30" height="30" y="458.0351" clip-path="url(#clipPath2)"/>
    </g>
    <g fill="rgb(255,204,0)" text-rendering="geometricPrecision" shape-rendering="geometricPrecision" transform="matrix(2.5759,0,0,2.5759,561.5416,-556.3899)" stroke="rgb(255,204,0)">
      <rect x="-104" width="30" height="30" y="488.0351" clip-path="url(#clipPath2)" stroke="none"/>
    </g>
    <g text-rendering="geometricPrecision" stroke-miterlimit="1.45" shape-rendering="geometricPrecision" font-family="sans-serif" transform="matrix(2.5759,0,0,2.5759,561.5416,-556.3899)" stroke-linecap="butt">
      <text x="-92.8174" xml:space="preserve" y="507.1894" clip-path="url(#clipPath2)" stroke="none">9</text>
      <rect fill="none" x="-104" width="30" height="30" y="488.0351" clip-path="url(#clipPath2)"/>
    </g>
    <g fill="rgb(255,204,0)" text-rendering="geometricPrecision" shape-rendering="geometricPrecision" transform="matrix(2.5759,0,0,2.5759,561.5416,-556.3899)" stroke="rgb(255,204,0)">
      <rect x="-104" width="30" height="30" y="518.0351" clip-path="url(#clipPath2)" stroke="none"/>
    </g>
    <g text-rendering="geometricPrecision" stroke-miterlimit="1.45" shape-rendering="geometricPrecision" font-family="sans-serif" transform="matrix(2.5759,0,0,2.5759,561.5416,-556.3899)" stroke-linecap="butt">
      <text x="-96.6348" xml:space="preserve" y="537.1894" clip-path="url(#clipPath2)" stroke="none">25</text>
      <rect fill="none" x="-104" width="30" height="30" y="518.0351" clip-path="url(#clipPath2)"/>
    </g>
    <g fill="rgb(51,204,204)" text-rendering="geometricPrecision" shape-rendering="geometricPrecision" transform="matrix(2.5759,0,0,2.5759,561.5416,-556.3899)" stroke="rgb(51,204,204)">
      <rect x="57.5247" y="241.5742" clip-path="url(#clipPath2)" width="165" rx="4" ry="4" height="321.4609" stroke="none"/>
      <rect x="57.5247" width="165" height="21.4609" y="241.5742" clip-path="url(#clipPath2)" stroke="none"/>
    </g>
    <g font-size="15px" stroke-linecap="butt" transform="matrix(2.5759,0,0,2.5759,561.5416,-556.3899)" text-rendering="geometricPrecision" font-family="sans-serif" shape-rendering="geometricPrecision" stroke-miterlimit="1.45">
      <text x="80.0902" xml:space="preserve" y="257.4975" clip-path="url(#clipPath2)" stroke="none">Adafruit PiTFT 3.5"</text>
      <rect x="57.5247" y="241.5742" clip-path="url(#clipPath2)" fill="none" width="165" stroke-dasharray="6,2" rx="4" ry="4" height="321.4609"/>
    </g>
    <g fill="rgb(255,204,0)" text-rendering="geometricPrecision" shape-rendering="geometricPrecision" transform="matrix(2.5759,0,0,2.5759,561.5416,-556.3899)" stroke="rgb(255,204,0)">
      <rect x="72.5247" width="30" height="30" y="278.0351" clip-path="url(#clipPath2)" stroke="none"/>
    </g>
    <g text-rendering="geometricPrecision" stroke-miterlimit="1.45" shape-rendering="geometricPrecision" font-family="sans-serif" transform="matrix(2.5759,0,0,2.5759,561.5416,-556.3899)" stroke-linecap="butt">
      <text x="83.7073" xml:space="preserve" y="297.1894" clip-path="url(#clipPath2)" stroke="none">2</text>
      <rect fill="none" x="72.5247" width="30" height="30" y="278.0351" clip-path="url(#clipPath2)"/>
    </g>
    <g fill="rgb(255,204,0)" text-rendering="geometricPrecision" shape-rendering="geometricPrecision" transform="matrix(2.5759,0,0,2.5759,561.5416,-556.3899)" stroke="rgb(255,204,0)">
      <rect x="72.5247" width="30" height="30" y="458.0351" clip-path="url(#clipPath2)" stroke="none"/>
    </g>
    <g text-rendering="geometricPrecision" stroke-miterlimit="1.45" shape-rendering="geometricPrecision" font-family="sans-serif" transform="matrix(2.5759,0,0,2.5759,561.5416,-556.3899)" stroke-linecap="butt">
      <text x="79.89" xml:space="preserve" y="477.1894" clip-path="url(#clipPath2)" stroke="none">18</text>
      <rect fill="none" x="72.5247" width="30" height="30" y="458.0351" clip-path="url(#clipPath2)"/>
    </g>
    <g fill="rgb(255,204,0)" text-rendering="geometricPrecision" shape-rendering="geometricPrecision" transform="matrix(2.5759,0,0,2.5759,561.5416,-556.3899)" stroke="rgb(255,204,0)">
      <rect x="72.5247" width="30" height="30" y="308.0351" clip-path="url(#clipPath2)" stroke="none"/>
    </g>
    <g text-rendering="geometricPrecision" stroke-miterlimit="1.45" shape-rendering="geometricPrecision" font-family="sans-serif" transform="matrix(2.5759,0,0,2.5759,561.5416,-556.3899)" stroke-linecap="butt">
      <text x="79.89" xml:space="preserve" y="327.1894" clip-path="url(#clipPath2)" stroke="none">19</text>
      <rect fill="none" x="72.5247" width="30" height="30" y="308.0351" clip-path="url(#clipPath2)"/>
    </g>
    <g fill="rgb(255,204,0)" text-rendering="geometricPrecision" shape-rendering="geometricPrecision" transform="matrix(2.5759,0,0,2.5759,561.5416,-556.3899)" stroke="rgb(255,204,0)">
      <rect x="72.5247" width="30" height="30" y="338.0351" clip-path="url(#clipPath2)" stroke="none"/>
    </g>
    <g text-rendering="geometricPrecision" stroke-miterlimit="1.45" shape-rendering="geometricPrecision" font-family="sans-serif" transform="matrix(2.5759,0,0,2.5759,561.5416,-556.3899)" stroke-linecap="butt">
      <text x="79.89" xml:space="preserve" y="357.1894" clip-path="url(#clipPath2)" stroke="none">21</text>
      <rect fill="none" x="72.5247" width="30" height="30" y="338.0351" clip-path="url(#clipPath2)"/>
    </g>
    <g fill="rgb(255,204,0)" text-rendering="geometricPrecision" shape-rendering="geometricPrecision" transform="matrix(2.5759,0,0,2.5759,561.5416,-556.3899)" stroke="rgb(255,204,0)">
      <rect x="72.5247" width="30" height="30" y="428.0351" clip-path="url(#clipPath2)" stroke="none"/>
    </g>
    <g text-rendering="geometricPrecision" stroke-miterlimit="1.45" shape-rendering="geometricPrecision" font-family="sans-serif" transform="matrix(2.5759,0,0,2.5759,561.5416,-556.3899)" stroke-linecap="butt">
      <text x="79.89" xml:space="preserve" y="447.1894" clip-path="url(#clipPath2)" stroke="none">22</text>
      <rect fill="none" x="72.5247" width="30" height="30" y="428.0351" clip-path="url(#clipPath2)"/>
    </g>
    <g fill="rgb(255,204,0)" text-rendering="geometricPrecision" shape-rendering="geometricPrecision" transform="matrix(2.5759,0,0,2.5759,561.5416,-556.3899)" stroke="rgb(255,204,0)">
      <rect x="72.5247" width="30" height="30" y="368.0351" clip-path="url(#clipPath2)" stroke="none"/>
    </g>
    <g text-rendering="geometricPrecision" stroke-miterlimit="1.45" shape-rendering="geometricPrecision" font-family="sans-serif" transform="matrix(2.5759,0,0,2.5759,561.5416,-556.3899)" stroke-linecap="butt">
      <text x="79.89" xml:space="preserve" y="387.1894" clip-path="url(#clipPath2)" stroke="none">23</text>
      <rect fill="none" x="72.5247" width="30" height="30" y="368.0351" clip-path="url(#clipPath2)"/>
    </g>
    <g fill="rgb(255,204,0)" text-rendering="geometricPrecision" shape-rendering="geometricPrecision" transform="matrix(2.5759,0,0,2.5759,561.5416,-556.3899)" stroke="rgb(255,204,0)">
      <rect x="72.5247" width="30" height="30" y="398.0351" clip-path="url(#clipPath2)" stroke="none"/>
    </g>
    <g text-rendering="geometricPrecision" stroke-miterlimit="1.45" shape-rendering="geometricPrecision" font-family="sans-serif" transform="matrix(2.5759,0,0,2.5759,561.5416,-556.3899)" stroke-linecap="butt">
      <text x="79.89" xml:space="preserve" y="417.1894" clip-path="url(#clipPath2)" stroke="none">24</text>
      <rect fill="none" x="72.5247" width="30" height="30" y="398.0351" clip-path="url(#clipPath2)"/>
    </g>
    <g fill="rgb(255,204,0)" text-rendering="geometricPrecision" shape-rendering="geometricPrecision" transform="matrix(2.5759,0,0,2.5759,561.5416,-556.3899)" stroke="rgb(255,204,0)">
      <rect x="72.5247" width="30" height="30" y="518.0351" clip-path="url(#clipPath2)" stroke="none"/>
    </g>
    <g text-rendering="geometricPrecision" stroke-miterlimit="1.45" shape-rendering="geometricPrecision" font-family="sans-serif" transform="matrix(2.5759,0,0,2.5759,561.5416,-556.3899)" stroke-linecap="butt">
      <text x="79.89" xml:space="preserve" y="537.1894" clip-path="url(#clipPath2)" stroke="none">25</text>
      <rect fill="none" x="72.5247" width="30" height="30" y="518.0351" clip-path="url(#clipPath2)"/>
    </g>
    <g fill="rgb(255,204,0)" text-rendering="geometricPrecision" shape-rendering="geometricPrecision" transform="matrix(2.5759,0,0,2.5759,561.5416,-556.3899)" stroke="rgb(255,204,0)">
      <rect x="72.5247" width="30" height="30" y="488.0351" clip-path="url(#clipPath2)" stroke="none"/>
    </g>
    <g text-rendering="geometricPrecision" stroke-miterlimit="1.45" shape-rendering="geometricPrecision" font-family="sans-serif" transform="matrix(2.5759,0,0,2.5759,561.5416,-556.3899)" stroke-linecap="butt">
      <text x="79.89" xml:space="preserve" y="507.1894" clip-path="url(#clipPath2)" stroke="none">26</text>
      <rect fill="none" x="72.5247" width="30" height="30" y="488.0351" clip-path="url(#clipPath2)"/>
      <path fill="none" d="M72.5247 293.0351 L-74 293.0351" stroke-width="3" clip-path="url(#clipPath2)"/>
      <text x="-13.6869" xml:space="preserve" y="286.205" clip-path="url(#clipPath2)" stroke="none">+5V</text>
      <path fill="none" d="M72.5247 473.0351 L-73.9809 473.0351" stroke-width="3" clip-path="url(#clipPath2)"/>
      <text x="-47.0648" xml:space="preserve" y="466.205" clip-path="url(#clipPath2)" stroke="none">touch pendown</text>
      <path fill="none" d="M-74 323.0351 L72.5247 323.0351" stroke-width="3" clip-path="url(#clipPath2)"/>
      <text x="-28.4115" xml:space="preserve" y="316.205" clip-path="url(#clipPath2)" stroke="none">SPI_MOSI</text>
      <path fill="none" d="M-74 353.0351 L72.5247 353.0351" stroke-width="3" clip-path="url(#clipPath2)"/>
      <text x="-28.4115" xml:space="preserve" y="346.205" clip-path="url(#clipPath2)" stroke="none">SPI_MISO</text>
      <path fill="none" d="M-74 443.0351 L72.5084 443.0351" stroke-width="3" clip-path="url(#clipPath2)"/>
      <text x="-24.2572" xml:space="preserve" y="436.205" clip-path="url(#clipPath2)" stroke="none">TFT D/C</text>
      <path fill="none" d="M-73.9684 383.0351 L72.5247 383.0351" stroke-width="3" clip-path="url(#clipPath2)"/>
      <text x="-24.4007" xml:space="preserve" y="376.205" clip-path="url(#clipPath2)" stroke="none">SPI_CLK</text>
      <path fill="none" d="M-74 413.0351 L72.5247 413.0351" stroke-width="3" clip-path="url(#clipPath2)"/>
      <text x="-47.4486" xml:space="preserve" y="406.205" clip-path="url(#clipPath2)" stroke="none">SPI_SSn[0], TFT</text>
      <path fill="none" d="M-74 533.0351 L72.5247 533.0351" stroke-width="3" clip-path="url(#clipPath2)"/>
      <text x="-14.4954" xml:space="preserve" y="526.205" clip-path="url(#clipPath2)" stroke="none">GND</text>
      <path fill="none" d="M-74 503.0351 L72.5247 503.0351" stroke-width="3" clip-path="url(#clipPath2)"/>
      <text x="-52.9183" xml:space="preserve" y="496.205" clip-path="url(#clipPath2)" stroke="none">SPI_SSs[1], touch</text>
    </g>
  </g>
</svg>
