<?xml version="1.0" encoding="utf-8"?>
<svg version="1.1" id="Layer_1" xmlns="http://www.w3.org/2000/svg" 
xmlns:xlink="http://www.w3.org/1999/xlink" x="0px" y="0px" width="122.875px" 
height="122.648px" 
viewBox="0 0 122.875 122.648" enable-background="new 0 0 122.875 122.648" xml:space="preserve">
<g>
<path style="fill:#000000;" fill-rule="evenodd" clip-rule="evenodd" d="M108.993,47.079c7.683-0.059,13.898,6.12,13.882,13.805 c-0.018,7.683-6.26,13.959-13.942,14.019L75.24,75.138l-0.235,33.73c-0.063,7.619-6.338,13.789-14.014,13.78 c-7.678-0.01-13.848-6.197-13.785-13.818l0.233-33.497l-33.558,0.235C6.2,75.628-0.016,69.448,0,61.764 c0.018-7.683,6.261-13.959,13.943-14.018l33.692-0.236l0.236-33.73C47.935,6.161,54.209-0.009,61.885,0 c7.678,0.009,13.848,6.197,13.784,13.818l-0.233,33.497L108.993,47.079L108.993,47.079z"/></g></svg>
