<?xml version="1.0" encoding="UTF-8" standalone="no"?>
<!-- Created with Inkscape (http://www.inkscape.org/) -->

<svg
   xmlns:dc="http://purl.org/dc/elements/1.1/"
   xmlns:cc="http://creativecommons.org/ns#"
   xmlns:rdf="http://www.w3.org/1999/02/22-rdf-syntax-ns#"
   xmlns:svg="http://www.w3.org/2000/svg"
   xmlns="http://www.w3.org/2000/svg"
   xmlns:sodipodi="http://sodipodi.sourceforge.net/DTD/sodipodi-0.dtd"
   xmlns:inkscape="http://www.inkscape.org/namespaces/inkscape"
   id="svg2"
   version="1.1"
   inkscape:version="0.91 r13725"
   xml:space="preserve"
   width="708.66248"
   height="354.32501"
   viewBox="0 0 708.66248 354.32501"
   sodipodi:docname="logo_stemlab.ai.svg"><metadata
     id="metadata8"><rdf:RDF><cc:Work
         rdf:about=""><dc:format>image/svg+xml</dc:format><dc:type
           rdf:resource="http://purl.org/dc/dcmitype/StillImage" /><dc:title></dc:title></cc:Work></rdf:RDF></metadata><defs
     id="defs6"><clipPath
       clipPathUnits="userSpaceOnUse"
       id="clipPath16"><path
         d="m 0,283.46 566.93,0 L 566.93,0 0,0 0,283.46 Z"
         id="path18"
         inkscape:connector-curvature="0" /></clipPath></defs><sodipodi:namedview
     pagecolor="#ffffff"
     bordercolor="#666666"
     borderopacity="1"
     objecttolerance="10"
     gridtolerance="10"
     guidetolerance="10"
     inkscape:pageopacity="0"
     inkscape:pageshadow="2"
     inkscape:window-width="976"
     inkscape:window-height="682"
     id="namedview4"
     showgrid="false"
     inkscape:zoom="0.4854215"
     inkscape:cx="680.85159"
     inkscape:cy="177.16251"
     inkscape:window-x="304"
     inkscape:window-y="1351"
     inkscape:window-maximized="0"
     inkscape:current-layer="g10" /><g
     id="g10"
     inkscape:groupmode="layer"
     inkscape:label="logo_stemlab"
     transform="matrix(1.25,0,0,-1.25,0,354.325)"><g
       id="g12"><g
         id="g14"
         clip-path="url(#clipPath16)"><g
           id="g20"
           transform="translate(192.0884,115.8076)"><path
             d="m 0,0 c 0.295,0.555 0.324,1.992 0.324,2.584 l 0,9.17 c 0,0.473 -0.001,2.098 -0.17,2.506 -0.171,0.324 -0.931,0.355 -1.23,0.355 l -14.767,0 c -2.221,0 -5.119,0.296 -6.748,1.996 -1.846,1.928 -2.102,5.561 -2.102,8.079 l 0,8.293 c 0,2.38 0.192,6.067 1.865,7.941 1.636,1.832 4.698,2.134 6.996,2.134 l 22.53,0 0.542,-5.787 -7.968,0 -9.922,0 -4.968,0 c -0.217,0 -0.855,-0.014 -1.109,-0.11 -0.26,-0.512 -0.291,-2.297 -0.291,-2.772 l 0,-7.823 c 0,-0.47 0.024,-2.245 0.268,-2.642 l 0.02,-0.032 0.017,-0.034 c 0.095,-0.18 0.932,-0.219 1.095,-0.219 l 14.823,0 c 2.306,0 5.301,-0.318 6.931,-2.16 1.665,-1.881 1.863,-5.534 1.863,-7.916 l 0,-9.506 c 0,-2.412 -0.231,-5.828 -1.843,-7.77 -1.637,-1.971 -4.545,-2.373 -6.951,-2.373 l -23.073,0 -0.513,5.719 7.928,0 0.025,0 6.326,0 9.026,0 C -0.708,-0.367 -0.238,-0.32 0,0 m 36.598,37.271 -0.941,0 -2.346,0 -1.138,0 0,-34.957 0,-0.213 0,-8.187 -7.675,0 0,8.267 0,0.133 0,34.957 -0.636,0 -3.789,0 -4.018,0 -3.733,0 0.765,5.787 30.496,0 0.766,-5.787 -7.751,0 z m 20.154,0 0,-15.858 3.905,0 8.376,0 8.353,0 0,-5.854 -8.353,0 -8.376,0 -3.905,0 0,-15.926 3.905,0 9.739,0 8.013,0 -0.337,-5.719 -28.928,0 0,8.078 0.001,0.322 0,32.434 -0.001,0.442 0,7.868 28.927,0 0.346,-5.787 -8.004,0 -9.756,0 -3.905,0 z m 72.185,-5.283 0,-29.674 0,-0.109 0,-8.291 -7.676,0 0,8.272 0,0.064 0,0.064 0,13.248 0,15.435 -12.558,-37.083 -6.854,0 -12.709,37.173 -0.035,-15.525 -0.01,0 0,-4.447 -0.021,-9.442 0.021,-0.303 0,-7.456 -4.926,0 0,13.698 0.006,0.367 0,22.981 c 0,0.612 -10e-4,1.224 -0.006,1.836 l 0,10.262 9.091,0 13.523,-39.872 13.266,39.872 8.888,0 0,-11.07 z"
             style="fill:#d8292f;fill-opacity:1;fill-rule:evenodd;stroke:none"
             id="path22"
             inkscape:connector-curvature="0" /></g><g
           id="g24"
           transform="translate(333.6494,123.1084)"><path
             d="m 0,0 -5.924,0 c 0.371,1.951 0.558,4.495 0.558,7.654 l 0,33.476 c 0,2.974 -0.187,5.495 -0.558,7.585 l 5.436,0 0,-41.061 C -0.488,4.355 -0.325,1.812 0,0 m 33.665,0 -4.67,0 -0.418,2.23 C 28.159,1.301 27.741,0.697 27.322,0.418 26.904,0.14 26.091,0 24.884,0 L 10.388,0 C 7.739,0 5.916,0.65 4.917,1.951 3.918,3.252 3.418,5.715 3.418,9.339 l 0,5.436 c 0,3.485 0.477,5.9 1.429,7.248 0.953,1.347 2.799,2.021 5.541,2.021 l 15.471,0 c 0.929,0 1.579,0.244 1.952,0.72 0.372,0.488 0.557,1.58 0.557,3.287 l 0,0.418 c 0,1.29 -0.047,2.091 -0.139,2.417 -0.233,0.871 -1.023,1.312 -2.37,1.312 l -16.169,0 c -2.369,0 -4.297,-0.209 -5.784,-0.627 l 0.418,4.112 21.814,0 c 2.741,0 4.611,-0.593 5.61,-1.778 0.999,-1.184 1.498,-3.647 1.498,-7.399 l 0,-18.852 c 0,-3.437 0.14,-5.981 0.419,-7.654 m -5.297,7.457 0,13.102 -17.702,0 C 9.69,20.559 9.087,20.42 8.854,20.141 8.482,19.677 8.297,18.492 8.297,16.587 l 0,-9.13 c 0,-1.58 0.14,-2.637 0.418,-3.171 0.279,-0.534 0.93,-0.802 1.951,-0.802 l 15.193,0 c 0.929,0 1.579,0.245 1.952,0.733 0.372,0.487 0.557,1.568 0.557,3.24 M 66.842,9.315 C 66.842,5.889 66.354,3.473 65.378,2.091 64.402,0.697 62.567,0 59.873,0 L 45.516,0 C 44.075,0 43.089,0.221 42.554,0.662 42.02,1.104 41.753,1.928 41.753,3.137 L 41.334,0 36.525,0 c 0.093,0.93 0.163,1.58 0.209,1.951 0.233,2.359 0.349,4.264 0.349,5.703 l 0,33.476 c 0,2.974 -0.186,5.495 -0.558,7.585 l 5.437,0 0,-15.332 c 0.231,0.859 0.662,1.452 1.289,1.788 0.627,0.337 1.475,0.512 2.544,0.512 l 14.078,0 c 2.648,0 4.472,-0.628 5.471,-1.882 0.998,-1.243 1.498,-3.682 1.498,-7.295 l 0,-17.191 z m -4.809,-1.858 0,20.908 0,0.894 c 0,1.138 -0.093,1.87 -0.279,2.184 -0.325,0.499 -1.068,0.755 -2.23,0.755 l -15.123,0 c -0.976,0 -1.627,-0.244 -1.952,-0.72 -0.325,-0.477 -0.487,-1.51 -0.487,-3.113 l 0,-20.908 c 0,-1.301 0.081,-2.288 0.243,-2.962 0.163,-0.674 0.895,-1.011 2.196,-1.011 l 15.123,0 c 0.883,0 1.522,0.256 1.916,0.767 0.396,0.511 0.593,1.58 0.593,3.206"
             style="fill:#373435;fill-opacity:1;fill-rule:nonzero;stroke:none"
             id="path26"
             inkscape:connector-curvature="0" /></g></g></g></g></svg>